<svg width="66" height="68" viewBox="0 0 66 68" fill="none" xmlns="http://www.w3.org/2000/svg">
<path d="M66 33.0685C66 53.277 51.2254 67.0556 33 67.0556C13.2917 67.0556 -8.97512e-06 51.3317 -5.78188e-06 33.0685C-2.58864e-06 14.8053 14.7746 2.58327e-06 33 5.7699e-06C51.2254 8.95653e-06 66 10.5636 66 33.0685Z" fill="black"/>
<path d="M56.7456 33.113C56.7456 47.5319 46.0574 57.363 32.8728 57.363C18.6154 57.363 8.99999 46.1439 9 33.113C9 20.082 19.6882 9.51831 32.8728 9.51832C46.0574 9.51832 56.7456 17.0555 56.7456 33.113Z" fill="#812011"/>
<path d="M32.8726 18.0925C37.1188 18.0925 40.9461 19.3057 43.7095 21.7947C46.4698 24.2811 48.1889 28.0583 48.189 33.2273C48.189 42.4851 41.3338 48.7888 32.8726 48.7888C23.7271 48.7887 17.5571 41.5963 17.5571 33.2273C17.5573 24.8704 24.4119 18.0927 32.8726 18.0925Z" fill="#812011" stroke="black" stroke-width="0.36044"/>
<path d="M43.4431 7.00779L42.0997 7.16383C37.1581 8.7156 36.7778 20.9136 38.8817 27.5116C45.2677 32.7563 54.5426 39.1145 57.5835 43.7239L51.1975 48.9691C47.0923 41.3397 40.7063 40.3861 36.1448 40.3861C26.5659 39.4324 24.7413 54.6911 11.5132 45.6312C26.8395 43.7239 28.2384 20.3591 27.022 8.91512L42.0997 7.16383C42.5149 7.03345 42.9623 6.97823 43.4431 7.00779Z" fill="black" stroke="black" stroke-width="0.9011"/>
<ellipse cx="33.2917" cy="32.6011" rx="1.67529" ry="2.09845" fill="#812011"/>
</svg>
